<svg width="288" height="288" viewBox="0 0 288 288" fill="none" xmlns="http://www.w3.org/2000/svg">
<path d="M82.2143 195.176C79.4905 195.176 77.1071 194.153 75.0643 192.106C73.0214 190.059 72 187.671 72 184.941V96.2353C72 93.5059 73.0214 91.1176 75.0643 89.0706C77.1071 87.0235 79.4905 86 82.2143 86L92.0881 106.3C92.9654 108.051 94.2183 109.427 95.847 110.428C97.4767 111.429 99.2313 111.929 101.111 111.929C104.799 111.929 107.594 110.368 109.495 107.245C111.396 104.122 111.552 100.907 109.963 97.6L104.345 86H119.496L129.37 106.3C130.248 108.051 131.5 109.427 133.129 110.428C134.759 111.429 136.513 111.929 138.393 111.929C142.081 111.929 144.876 110.368 146.777 107.245C148.678 104.122 148.834 100.907 147.245 97.6L141.627 86H156.779L166.652 106.3C167.53 108.051 168.783 109.427 170.411 110.428C172.041 111.429 173.796 111.929 175.675 111.929C179.363 111.929 182.158 110.368 184.059 107.245C185.96 104.122 186.116 100.907 184.527 97.6L178.91 86H197.976C200.7 86 203.083 87.0235 205.126 89.0706C207.169 91.1176 208.19 93.5059 208.19 96.2353V125.235C208.19 126.685 207.701 127.9 206.723 128.881C205.744 129.862 204.53 130.353 203.083 130.353H197.976V122.165H82.2143V184.941H138.393C139.84 184.941 141.053 185.435 142.033 186.422C143.011 187.408 143.5 188.63 143.5 190.09C143.5 191.547 143.011 192.76 142.033 193.726C141.053 194.693 139.84 195.176 138.393 195.176H82.2143ZM153.714 196.882V183.065C153.714 182.431 153.828 181.818 154.055 181.226C154.282 180.632 154.679 180.051 155.246 179.482L191.271 143.527C192.304 142.49 193.454 141.741 194.718 141.279C195.982 140.819 197.238 140.588 198.487 140.588C199.849 140.588 201.154 140.844 202.402 141.356C203.651 141.868 204.786 142.635 205.807 143.659L212.106 149.971C213.127 150.994 213.865 152.131 214.319 153.382C214.773 154.633 215 155.884 215 157.135C215 158.386 214.745 159.666 214.234 160.974C213.723 162.281 212.953 163.454 211.922 164.491L176.186 200.465C175.618 201.033 175.038 201.431 174.446 201.659C173.855 201.886 173.243 202 172.611 202H158.821C157.374 202 156.162 201.509 155.183 200.528C154.204 199.548 153.714 198.332 153.714 196.882ZM163.929 191.765H170.398L190.996 170.953L187.932 167.712L184.698 164.641L163.929 185.282V191.765ZM187.932 167.712L184.698 164.641L190.996 170.953L187.932 167.712Z" fill="#4E537D"/>
</svg>
