<svg width="579" height="469" viewBox="0 0 579 469" fill="none" xmlns="http://www.w3.org/2000/svg">
<path d="M41.3125 440.667C30.2958 440.667 20.6562 436.535 12.3937 428.273C4.13125 420.01 0 410.371 0 399.354V41.3125C0 30.2958 4.13125 20.6562 12.3937 12.3937C20.6562 4.13125 30.2958 0 41.3125 0L81.2479 81.9365C84.7962 89.0055 89.8639 94.5597 96.4509 98.5992C103.043 102.639 110.139 104.658 117.741 104.658C132.659 104.658 143.963 98.3559 151.651 85.751C159.34 73.1461 159.971 60.1694 153.545 46.8208L130.823 0H192.103L232.039 81.9365C235.587 89.0055 240.654 94.5597 247.242 98.5992C253.833 102.639 260.93 104.658 268.531 104.658C283.45 104.658 294.753 98.3559 302.442 85.751C310.131 73.1461 310.762 60.1694 304.335 46.8208L281.614 0H342.894L382.829 81.9365C386.377 89.0055 391.445 94.5597 398.032 98.5992C404.624 102.639 411.72 104.658 419.322 104.658C434.24 104.658 445.544 98.3559 453.233 85.751C460.921 73.1461 461.552 60.1694 455.126 46.8208L432.404 0H509.521C520.537 0 530.177 4.13125 538.44 12.3937C546.702 20.6562 550.833 30.2958 550.833 41.3125V158.365C550.833 164.217 548.855 169.122 544.898 173.079C540.937 177.04 536.03 179.021 530.177 179.021H509.521V145.971H41.3125V399.354H268.531C274.384 399.354 279.291 401.346 283.252 405.331C287.209 409.31 289.188 414.245 289.188 420.134C289.188 426.019 287.209 430.912 283.252 434.814C279.291 438.716 274.384 440.667 268.531 440.667H41.3125ZM330.5 447.552V391.78C330.5 389.223 330.959 386.749 331.877 384.358C332.795 381.962 334.402 379.616 336.697 377.321L482.399 232.197C486.581 228.011 491.229 224.986 496.342 223.122C501.456 221.263 506.537 220.333 511.586 220.333C517.095 220.333 522.374 221.366 527.423 223.432C532.472 225.497 537.062 228.596 541.194 232.727L566.67 258.203C570.801 262.334 573.785 266.925 575.621 271.974C577.457 277.023 578.375 282.073 578.375 287.122C578.375 292.171 577.342 297.335 575.277 302.614C573.211 307.893 570.094 312.625 565.926 316.812L421.387 462.011C419.092 464.307 416.747 465.913 414.351 466.831C411.959 467.749 409.485 468.208 406.928 468.208H351.156C345.304 468.208 340.399 466.228 336.442 462.266C332.481 458.309 330.5 453.405 330.5 447.552ZM371.812 426.896H397.977L481.291 342.894L468.897 329.811L455.815 317.418L371.812 400.731V426.896ZM468.897 329.811L455.815 317.418L481.291 342.894L468.897 329.811Z" fill="#EDEDED"/>
</svg>
