<svg width="143" height="116" viewBox="0 0 143 116" fill="none" xmlns="http://www.w3.org/2000/svg">
<path d="M10.2143 109.176C7.49048 109.176 5.10714 108.153 3.06429 106.106C1.02143 104.059 0 101.671 0 98.9412V10.2353C0 7.50588 1.02143 5.11765 3.06429 3.07059C5.10714 1.02353 7.49048 0 10.2143 0L20.0881 20.3C20.9654 22.0514 22.2183 23.4275 23.847 24.4282C25.4767 25.429 27.2313 25.9294 29.1107 25.9294C32.7992 25.9294 35.5939 24.368 37.4949 21.2451C39.3959 18.1222 39.552 14.9071 37.9631 11.6L32.3452 0H47.4964L57.3702 20.3C58.2475 22.0514 59.5005 23.4275 61.1291 24.4282C62.7588 25.429 64.5134 25.9294 66.3929 25.9294C70.0813 25.9294 72.8761 24.368 74.7771 21.2451C76.6781 18.1222 76.8341 14.9071 75.2452 11.6L69.6274 0H84.7786L94.6524 20.3C95.5297 22.0514 96.7826 23.4275 98.4112 24.4282C100.041 25.429 101.796 25.9294 103.675 25.9294C107.363 25.9294 110.158 24.368 112.059 21.2451C113.96 18.1222 114.116 14.9071 112.527 11.6L106.91 0H125.976C128.7 0 131.083 1.02353 133.126 3.07059C135.169 5.11765 136.19 7.50588 136.19 10.2353V39.2353C136.19 40.6853 135.701 41.9004 134.723 42.8808C133.744 43.8622 132.53 44.3529 131.083 44.3529H125.976V36.1647H10.2143V98.9412H66.3929C67.8399 98.9412 69.0531 99.4347 70.0325 100.422C71.0108 101.408 71.5 102.63 71.5 104.09C71.5 105.547 71.0108 106.76 70.0325 107.726C69.0531 108.693 67.8399 109.176 66.3929 109.176H10.2143ZM81.7143 110.882V97.0647C81.7143 96.4313 81.8278 95.8183 82.0548 95.2258C82.2817 94.6321 82.679 94.051 83.2464 93.4824L119.271 57.5275C120.304 56.4903 121.454 55.7408 122.718 55.2791C123.982 54.8185 125.238 54.5882 126.487 54.5882C127.849 54.5882 129.154 54.8441 130.402 55.3559C131.651 55.8676 132.786 56.6353 133.807 57.6588L140.106 63.9706C141.127 64.9941 141.865 66.1314 142.319 67.3823C142.773 68.6333 143 69.8843 143 71.1353C143 72.3863 142.745 73.6657 142.234 74.9735C141.723 76.2814 140.953 77.4539 139.922 78.4911L104.186 114.465C103.618 115.033 103.038 115.431 102.446 115.659C101.855 115.886 101.243 116 100.611 116H86.8214C85.3744 116 84.1617 115.509 83.1834 114.528C82.204 113.548 81.7143 112.332 81.7143 110.882ZM91.9286 105.765H98.3976L118.996 84.9529L115.932 81.7118L112.698 78.6412L91.9286 99.2823V105.765ZM115.932 81.7118L112.698 78.6412L118.996 84.9529L115.932 81.7118Z" fill="#4E537D"/>
</svg>
